<svg width="1080" height="1350" viewBox="0 0 1080 1350" fill="none" xmlns="http://www.w3.org/2000/svg">
  <defs>
    <linearGradient id="bg" x1="0" y1="0" x2="1080" y2="1350" gradientUnits="userSpaceOnUse">
      <stop offset="0" stop-color="#EEF5FF"/>
      <stop offset="0.58" stop-color="#E9F8EF"/>
      <stop offset="1" stop-color="#DDF1E3"/>
    </linearGradient>

    <linearGradient id="hero" x1="0" y1="0" x2="1" y2="1">
      <stop offset="0" stop-color="#0E2A56"/>
      <stop offset="1" stop-color="#113A6D"/>
    </linearGradient>

    <linearGradient id="accent" x1="0" y1="0" x2="1" y2="1">
      <stop offset="0" stop-color="#4CAF50"/>
      <stop offset="1" stop-color="#43A047"/>
    </linearGradient>

    <filter id="cardShadow" x="-30%" y="-30%" width="160%" height="180%">
      <feDropShadow dx="0" dy="10" stdDeviation="14" flood-color="#0F172A" flood-opacity="0.15"/>
    </filter>

    <filter id="phoneShadow" x="-40%" y="-30%" width="180%" height="180%">
      <feDropShadow dx="0" dy="20" stdDeviation="20" flood-color="#0B1D3A" flood-opacity="0.28"/>
    </filter>
  </defs>

  <rect width="1080" height="1350" fill="url(#bg)"/>

  <path d="M0 0H1080V430C960 490 855 520 710 500C525 473 390 390 202 410C119 419 55 449 0 488V0Z" fill="url(#hero)"/>

  <circle cx="980" cy="160" r="170" fill="#FFFFFF" fill-opacity="0.06"/>
  <circle cx="910" cy="85" r="78" fill="#FFFFFF" fill-opacity="0.08"/>

  <rect x="76" y="64" width="76" height="76" rx="20" fill="#FFFFFF" fill-opacity="0.12"/>
  <image href="../logo192.png" x="86" y="74" width="56" height="56" preserveAspectRatio="xMidYMid meet"/>

  <text x="168" y="104" fill="#FFFFFF" font-family="Arial, sans-serif" font-size="50" font-weight="800" letter-spacing="1.5">Acadex</text>
  <text x="168" y="138" fill="#D5E7FF" font-family="Arial, sans-serif" font-size="20" letter-spacing="1">SMART STUDY SYSTEM</text>

  <text x="80" y="230" fill="#FFFFFF" font-family="Arial, sans-serif" font-size="68" font-weight="900" letter-spacing="2">COMING SOON</text>
  <text x="80" y="286" fill="#BDE5C0" font-family="Arial, sans-serif" font-size="40" font-weight="700" letter-spacing="1">TUESDAY 26/05/2026</text>

  <rect x="80" y="318" width="310" height="78" rx="20" fill="url(#accent)" filter="url(#cardShadow)"/>
  <text x="110" y="366" fill="#FFFFFF" font-family="Arial, sans-serif" font-size="40" font-weight="900" letter-spacing="1">COUNTDOWN: T-2</text>

  <g filter="url(#cardShadow)">
    <rect x="80" y="540" width="540" height="728" rx="30" fill="#FFFFFF"/>
  </g>

  <text x="122" y="608" fill="#0E2A56" font-family="Arial, sans-serif" font-size="44" font-weight="900">Why Acadex?</text>

  <circle cx="132" cy="674" r="10" fill="#4CAF50"/>
  <text x="160" y="684" fill="#334155" font-family="Arial, sans-serif" font-size="30" font-weight="700">All Question Papers in one place</text>

  <circle cx="132" cy="742" r="10" fill="#4CAF50"/>
  <text x="160" y="752" fill="#334155" font-family="Arial, sans-serif" font-size="30" font-weight="700">Reports and Presentations access</text>

  <circle cx="132" cy="810" r="10" fill="#4CAF50"/>
  <text x="160" y="820" fill="#334155" font-family="Arial, sans-serif" font-size="30" font-weight="700">Smart filters by Department + Year</text>

  <circle cx="132" cy="878" r="10" fill="#4CAF50"/>
  <text x="160" y="888" fill="#334155" font-family="Arial, sans-serif" font-size="30" font-weight="700">Built for HND and BTS candidates</text>

  <rect x="122" y="940" width="458" height="140" rx="24" fill="#F1F8F4" stroke="#D3E9D8"/>
  <text x="146" y="996" fill="#0E2A56" font-family="Arial, sans-serif" font-size="32" font-weight="800">Study faster.</text>
  <text x="146" y="1038" fill="#0E2A56" font-family="Arial, sans-serif" font-size="32" font-weight="800">Stay ready.</text>
  <text x="146" y="1078" fill="#16A34A" font-family="Arial, sans-serif" font-size="34" font-weight="900">Compete with confidence.</text>

  <rect x="122" y="1118" width="458" height="110" rx="22" fill="url(#accent)"/>
  <text x="150" y="1186" fill="#FFFFFF" font-family="Arial, sans-serif" font-size="40" font-weight="900" letter-spacing="0.8">Get ready for launch</text>

  <g filter="url(#phoneShadow)">
    <rect x="640" y="240" width="370" height="1000" rx="52" fill="#0F172A"/>
  </g>
  <rect x="655" y="270" width="340" height="940" rx="38" fill="#E5E7EB"/>
  <rect x="785" y="248" width="80" height="10" rx="5" fill="#334155"/>

  <rect x="655" y="270" width="340" height="98" rx="38" fill="#F3F4F6"/>
  <rect x="675" y="292" width="36" height="36" rx="10" fill="#D1D5DB"/>
  <rect x="930" y="292" width="44" height="44" rx="22" fill="#4CAF50"/>
  <text x="740" y="324" fill="#0F172A" font-family="Arial, sans-serif" font-size="22" font-weight="700">Candidate Dashboard</text>
  <text x="946" y="322" fill="#FFFFFF" font-family="Arial, sans-serif" font-size="20" font-weight="800">A</text>

  <text x="684" y="448" fill="#1F7A3E" font-family="Arial, sans-serif" font-size="56" font-weight="900">Question Papers</text>
  <text x="684" y="498" fill="#5B6B84" font-family="Arial, sans-serif" font-size="26">Your activity (last 7 days): Downloads 0 • Previews 0</text>

  <rect x="684" y="520" width="210" height="42" rx="8" fill="#FFFFFF" stroke="#CBD5E1"/>
  <text x="695" y="548" fill="#64748B" font-family="Arial, sans-serif" font-size="22">Search by title...</text>

  <rect x="684" y="574" width="240" height="36" rx="7" fill="#FFFFFF" stroke="#CBD5E1"/>
  <text x="694" y="599" fill="#0F172A" font-family="Arial, sans-serif" font-size="22">All Departments</text>

  <rect x="934" y="574" width="61" height="36" rx="7" fill="#FFFFFF" stroke="#CBD5E1"/>
  <text x="940" y="599" fill="#0F172A" font-family="Arial, sans-serif" font-size="18">Years</text>

  <rect x="672" y="640" width="306" height="190" rx="22" fill="#F8FAFC" stroke="#D2DAE5"/>
  <text x="692" y="700" fill="#1F7A3E" font-family="Arial, sans-serif" font-size="40" font-weight="900">WEB DEVELOPMENT</text>
  <text x="692" y="740" fill="#5A6B85" font-family="Arial, sans-serif" font-size="30">2025 • SOFTWARE ENGINEERING</text>
  <rect x="692" y="760" width="142" height="44" rx="14" fill="#4CAF50"/>
  <rect x="844" y="760" width="124" height="44" rx="14" fill="#CAD5E4"/>
  <text x="736" y="790" fill="#FFFFFF" font-family="Arial, sans-serif" font-size="24" font-weight="800">Preview</text>
  <text x="885" y="790" fill="#0F172A" font-family="Arial, sans-serif" font-size="24" font-weight="700">Download</text>

  <rect x="672" y="850" width="306" height="190" rx="22" fill="#F8FAFC" stroke="#D2DAE5"/>
  <text x="692" y="910" fill="#1F7A3E" font-family="Arial, sans-serif" font-size="37" font-weight="900">SYSTEM ANALYSIS</text>
  <text x="692" y="950" fill="#5A6B85" font-family="Arial, sans-serif" font-size="30">2025 • SOFTWARE ENGINEERING</text>
  <rect x="692" y="970" width="142" height="44" rx="14" fill="#4CAF50"/>
  <rect x="844" y="970" width="124" height="44" rx="14" fill="#CAD5E4"/>
  <text x="736" y="1000" fill="#FFFFFF" font-family="Arial, sans-serif" font-size="24" font-weight="800">Preview</text>
  <text x="885" y="1000" fill="#0F172A" font-family="Arial, sans-serif" font-size="24" font-weight="700">Download</text>

  <circle cx="952" cy="1125" r="36" fill="#4CAF50"/>
  <rect x="942" y="1112" width="20" height="4" rx="2" fill="#FFFFFF"/>
  <rect x="950" y="1104" width="4" height="20" rx="2" fill="#FFFFFF"/>

  <text x="82" y="1312" fill="#0E2A56" font-family="Arial, sans-serif" font-size="24" font-weight="700" letter-spacing="1.2">ACADEX • HND + BTS DIGITAL PREP PLATFORM</text>
</svg>
